<svg width="669" height="671" viewBox="0 0 669 671" fill="none" xmlns="http://www.w3.org/2000/svg">
<g id="&#234;&#183;&#184;&#235;&#158;&#152;&#237;&#148;&#189;">
<g id="Group 2085676365">
<g id="Group 2085676363">
<line id="Line 16" x1="354.466" y1="138.568" x2="317.209" y2="138.568" stroke="url(#paint0_linear_0_1)" stroke-width="1.35284"/>
<line id="Line 17" x1="350.474" y1="103.324" x2="321.2" y2="103.324" stroke="url(#paint1_linear_0_1)" stroke-width="1.35284"/>
<line id="Line 18" x1="345.15" y1="36.7935" x2="326.522" y2="36.7935" stroke="url(#paint2_linear_0_1)" stroke-width="1.35284"/>
</g>
<g id="Group 2085676364">
<line id="Line 16_2" y1="-0.676421" x2="37.2571" y2="-0.676421" transform="matrix(-1 0 0 1 354.466 533.766)" stroke="url(#paint3_linear_0_1)" stroke-width="1.35284"/>
<line id="Line 17_2" y1="-0.676421" x2="29.2735" y2="-0.676421" transform="matrix(-1 0 0 1 350.474 569.011)" stroke="url(#paint4_linear_0_1)" stroke-width="1.35284"/>
<line id="Line 18_2" y1="-0.676421" x2="18.6286" y2="-0.676421" transform="matrix(-1 0 0 1 345.15 635.541)" stroke="url(#paint5_linear_0_1)" stroke-width="1.35284"/>
<line id="Line 19" y1="-0.676421" x2="10.6449" y2="-0.676421" transform="matrix(-1 0 0 1 341.165 670.137)" stroke="url(#paint6_linear_0_1)" stroke-width="1.35284"/>
<line id="Line 20" y1="-0.676421" x2="10.6449" y2="-0.676421" transform="matrix(-1 0 0 1 341.165 1.35278)" stroke="url(#paint7_linear_0_1)" stroke-width="1.35284"/>
</g>
</g>
<g id="Group 2085676366">
<g id="Group 2085676363_2">
<line id="Line 16_3" x1="531.57" y1="353.53" x2="531.57" y2="316.273" stroke="url(#paint8_linear_0_1)" stroke-width="1.35284"/>
<line id="Line 17_3" x1="566.814" y1="349.538" x2="566.814" y2="320.265" stroke="url(#paint9_linear_0_1)" stroke-width="1.35284"/>
<line id="Line 18_3" x1="633.34" y1="344.216" x2="633.34" y2="325.587" stroke="url(#paint10_linear_0_1)" stroke-width="1.35284"/>
<line id="Line 19_2" x1="667.941" y1="340.224" x2="667.941" y2="329.579" stroke="url(#paint11_linear_0_1)" stroke-width="1.35284"/>
</g>
<g id="Group 2085676364_2">
<line id="Line 16_4" y1="-0.676421" x2="37.2571" y2="-0.676421" transform="matrix(4.37114e-08 -1 -1 -4.37114e-08 136.371 353.53)" stroke="url(#paint12_linear_0_1)" stroke-width="1.35284"/>
<line id="Line 17_4" y1="-0.676421" x2="29.2735" y2="-0.676421" transform="matrix(4.37114e-08 -1 -1 -4.37114e-08 101.127 349.538)" stroke="url(#paint13_linear_0_1)" stroke-width="1.35284"/>
<line id="Line 18_4" y1="-0.676421" x2="18.6286" y2="-0.676421" transform="matrix(4.37114e-08 -1 -1 -4.37114e-08 34.5938 344.216)" stroke="url(#paint14_linear_0_1)" stroke-width="1.35284"/>
<line id="Line 19_3" y1="-0.676421" x2="10.6449" y2="-0.676421" transform="matrix(4.37114e-08 -1 -1 -4.37114e-08 0 340.224)" stroke="url(#paint15_linear_0_1)" stroke-width="1.35284"/>
</g>
</g>
<circle id="Ellipse 9" cx="335.968" cy="335.505" r="262.796" stroke="#3796EF" stroke-width="1.33061"/>
<circle id="Ellipse 10" opacity="0.6" cx="334.914" cy="335.784" r="281.039" stroke="#AAD0FF" stroke-width="9.31428" stroke-dasharray="1.33 13.31"/>
<g id="Group 2085676367" opacity="0.9">
<path id="Vector 5" d="M548.866 70.7136H600.76V122.607" stroke="#3796EF" stroke-width="2.66122"/>
<path id="Vector 7" d="M121.74 70.7136H69.8464V122.607" stroke="#3796EF" stroke-width="2.66122"/>
<path id="Vector 6" d="M548.866 600.296H600.76V548.403" stroke="#3796EF" stroke-width="2.66122"/>
<path id="Vector 8" d="M121.74 600.296H69.8464V548.403" stroke="#3796EF" stroke-width="2.66122"/>
</g>
<g id="Group 2085676369">
<path id="Ellipse 12" opacity="0.8" d="M612.733 378.199C617.184 349.046 617.019 319.374 612.243 290.272" stroke="#3796EF" stroke-width="10.6449"/>
<path id="Ellipse 13" opacity="0.8" d="M56.3387 378.199C51.8878 349.046 52.0533 319.374 56.8291 290.272" stroke="#3796EF" stroke-width="10.6449"/>
<path id="Ellipse 14" opacity="0.8" d="M290.571 612.433C319.724 616.884 349.396 616.718 378.498 611.943" stroke="#3796EF" stroke-width="10.6449"/>
<path id="Ellipse 15" opacity="0.8" d="M290.571 57.3681C319.724 52.9173 349.396 53.0827 378.498 57.8585" stroke="#3796EF" stroke-width="10.6449"/>
</g>
</g>
<defs>
<linearGradient id="paint0_linear_0_1" x1="354.466" y1="137.392" x2="317.209" y2="137.392" gradientUnits="userSpaceOnUse">
<stop stop-color="#2D8BFF" stop-opacity="0"/>
<stop offset="0.1" stop-color="#2D8BFF"/>
<stop offset="0.9" stop-color="#2D8BFF"/>
<stop offset="1" stop-color="#2D8BFF" stop-opacity="0"/>
</linearGradient>
<linearGradient id="paint1_linear_0_1" x1="350.474" y1="102.148" x2="321.2" y2="102.148" gradientUnits="userSpaceOnUse">
<stop stop-color="#2D8BFF" stop-opacity="0"/>
<stop offset="0.1" stop-color="#2D8BFF"/>
<stop offset="0.9" stop-color="#2D8BFF"/>
<stop offset="1" stop-color="#2D8BFF" stop-opacity="0"/>
</linearGradient>
<linearGradient id="paint2_linear_0_1" x1="345.15" y1="35.6171" x2="326.522" y2="35.6171" gradientUnits="userSpaceOnUse">
<stop stop-color="#2D8BFF" stop-opacity="0"/>
<stop offset="0.1" stop-color="#2D8BFF"/>
<stop offset="0.9" stop-color="#2D8BFF"/>
<stop offset="1" stop-color="#2D8BFF" stop-opacity="0"/>
</linearGradient>
<linearGradient id="paint3_linear_0_1" x1="0" y1="0.5" x2="37.2571" y2="0.5" gradientUnits="userSpaceOnUse">
<stop stop-color="#2D8BFF" stop-opacity="0"/>
<stop offset="0.1" stop-color="#2D8BFF"/>
<stop offset="0.9" stop-color="#2D8BFF"/>
<stop offset="1" stop-color="#2D8BFF" stop-opacity="0"/>
</linearGradient>
<linearGradient id="paint4_linear_0_1" x1="0" y1="0.5" x2="29.2735" y2="0.5" gradientUnits="userSpaceOnUse">
<stop stop-color="#2D8BFF" stop-opacity="0"/>
<stop offset="0.1" stop-color="#2D8BFF"/>
<stop offset="0.9" stop-color="#2D8BFF"/>
<stop offset="1" stop-color="#2D8BFF" stop-opacity="0"/>
</linearGradient>
<linearGradient id="paint5_linear_0_1" x1="0" y1="0.5" x2="18.6286" y2="0.5" gradientUnits="userSpaceOnUse">
<stop stop-color="#2D8BFF" stop-opacity="0"/>
<stop offset="0.1" stop-color="#2D8BFF"/>
<stop offset="0.9" stop-color="#2D8BFF"/>
<stop offset="1" stop-color="#2D8BFF" stop-opacity="0"/>
</linearGradient>
<linearGradient id="paint6_linear_0_1" x1="0" y1="0.5" x2="10.6449" y2="0.5" gradientUnits="userSpaceOnUse">
<stop stop-color="#2D8BFF" stop-opacity="0"/>
<stop offset="0.1" stop-color="#2D8BFF"/>
<stop offset="0.9" stop-color="#2D8BFF"/>
<stop offset="1" stop-color="#2D8BFF" stop-opacity="0"/>
</linearGradient>
<linearGradient id="paint7_linear_0_1" x1="0" y1="0.5" x2="10.6449" y2="0.5" gradientUnits="userSpaceOnUse">
<stop stop-color="#2D8BFF" stop-opacity="0"/>
<stop offset="0.1" stop-color="#2D8BFF"/>
<stop offset="0.9" stop-color="#2D8BFF"/>
<stop offset="1" stop-color="#2D8BFF" stop-opacity="0"/>
</linearGradient>
<linearGradient id="paint8_linear_0_1" x1="532.746" y1="353.53" x2="532.746" y2="316.273" gradientUnits="userSpaceOnUse">
<stop stop-color="#2D8BFF" stop-opacity="0"/>
<stop offset="0.1" stop-color="#2D8BFF"/>
<stop offset="0.9" stop-color="#2D8BFF"/>
<stop offset="1" stop-color="#2D8BFF" stop-opacity="0"/>
</linearGradient>
<linearGradient id="paint9_linear_0_1" x1="567.99" y1="349.538" x2="567.99" y2="320.265" gradientUnits="userSpaceOnUse">
<stop stop-color="#2D8BFF" stop-opacity="0"/>
<stop offset="0.1" stop-color="#2D8BFF"/>
<stop offset="0.9" stop-color="#2D8BFF"/>
<stop offset="1" stop-color="#2D8BFF" stop-opacity="0"/>
</linearGradient>
<linearGradient id="paint10_linear_0_1" x1="634.516" y1="344.216" x2="634.516" y2="325.587" gradientUnits="userSpaceOnUse">
<stop stop-color="#2D8BFF" stop-opacity="0"/>
<stop offset="0.1" stop-color="#2D8BFF"/>
<stop offset="0.9" stop-color="#2D8BFF"/>
<stop offset="1" stop-color="#2D8BFF" stop-opacity="0"/>
</linearGradient>
<linearGradient id="paint11_linear_0_1" x1="669.117" y1="340.224" x2="669.117" y2="329.579" gradientUnits="userSpaceOnUse">
<stop stop-color="#2D8BFF" stop-opacity="0"/>
<stop offset="0.1" stop-color="#2D8BFF"/>
<stop offset="0.9" stop-color="#2D8BFF"/>
<stop offset="1" stop-color="#2D8BFF" stop-opacity="0"/>
</linearGradient>
<linearGradient id="paint12_linear_0_1" x1="0" y1="0.5" x2="37.2571" y2="0.5" gradientUnits="userSpaceOnUse">
<stop stop-color="#2D8BFF" stop-opacity="0"/>
<stop offset="0.1" stop-color="#2D8BFF"/>
<stop offset="0.9" stop-color="#2D8BFF"/>
<stop offset="1" stop-color="#2D8BFF" stop-opacity="0"/>
</linearGradient>
<linearGradient id="paint13_linear_0_1" x1="0" y1="0.5" x2="29.2735" y2="0.5" gradientUnits="userSpaceOnUse">
<stop stop-color="#2D8BFF" stop-opacity="0"/>
<stop offset="0.1" stop-color="#2D8BFF"/>
<stop offset="0.9" stop-color="#2D8BFF"/>
<stop offset="1" stop-color="#2D8BFF" stop-opacity="0"/>
</linearGradient>
<linearGradient id="paint14_linear_0_1" x1="0" y1="0.5" x2="18.6286" y2="0.5" gradientUnits="userSpaceOnUse">
<stop stop-color="#2D8BFF" stop-opacity="0"/>
<stop offset="0.1" stop-color="#2D8BFF"/>
<stop offset="0.9" stop-color="#2D8BFF"/>
<stop offset="1" stop-color="#2D8BFF" stop-opacity="0"/>
</linearGradient>
<linearGradient id="paint15_linear_0_1" x1="0" y1="0.5" x2="10.6449" y2="0.5" gradientUnits="userSpaceOnUse">
<stop stop-color="#2D8BFF" stop-opacity="0"/>
<stop offset="0.1" stop-color="#2D8BFF"/>
<stop offset="0.9" stop-color="#2D8BFF"/>
<stop offset="1" stop-color="#2D8BFF" stop-opacity="0"/>
</linearGradient>
</defs>
</svg>
