<svg width="176" height="44" viewBox="0 0 176 44" fill="none" xmlns="http://www.w3.org/2000/svg">
<g clip-path="url(#clip0_393_4843)">
<path fill-rule="evenodd" clip-rule="evenodd" d="M44.7441 6.60246C39.9676 2.66888 33.435 1.33427 27.2536 2.38791C21.2128 3.16057 15.5934 6.67271 12.8539 11.9409C10.1847 17.0686 10.3954 23.3202 12.9241 28.0265C14.9612 31.8898 18.4733 34.7698 22.1962 36.1746C18.6138 32.3113 16.7875 27.1836 16.7172 22.3368C16.647 17.2793 18.684 11.8004 22.8986 8.21804C25.0761 6.32149 27.9561 4.91664 31.0467 4.3547C34.2779 3.79276 37.79 4.14397 41.0212 5.40834C44.5333 6.81319 47.624 9.55265 49.7313 12.8541C48.4669 10.6063 46.7108 8.28829 44.7441 6.60246Z" fill="url(#paint0_radial_393_4843)"/>
<path fill-rule="evenodd" clip-rule="evenodd" d="M52.1903 22.1263H52.2605C52.401 16.9284 50.5045 11.6602 47.0626 7.65633C43.6207 3.6525 38.6334 1.05352 33.4355 0.491577C28.2375 -0.070364 22.8991 1.33449 18.825 4.35492C14.7509 7.30511 11.9412 11.8709 10.9578 16.6474C10.0447 21.3536 10.9578 26.4111 13.4163 30.3447C15.8046 34.2081 19.6679 37.1582 23.9527 38.3524C28.097 39.5465 32.6628 39.1953 36.4559 37.369C40.1788 35.6129 43.129 32.5222 44.7446 28.9399C47.484 27.254 50.364 24.936 51.6283 21.7049C52.0498 30.2745 46.4304 39.0548 38.2822 42.2157C30.2043 45.3766 20.0894 42.6372 14.7509 35.8939C10.3257 30.7662 8.63983 23.3204 10.3959 16.7176C12.152 10.1851 17.2797 4.49541 23.6015 2.1774C29.9936 -0.140607 37.5798 0.842791 43.129 4.70614C48.6782 8.63972 52.1903 15.383 52.1903 22.1263Z" fill="url(#paint1_radial_393_4843)"/>
<path d="M31.9612 15.8747L28.73 17.42L28.1681 14.8913L32.4529 12.8542H34.7709V29.853H32.0314V15.8747H31.9612Z" fill="#002F46"/>
<path d="M62.726 20.1599H56.4744V21.7052H62.726V20.1599Z" fill="#006296"/>
<path d="M62.726 28.3782H56.4744V29.9235H62.726V28.3782Z" fill="#006296"/>
<path d="M62.726 24.0935H56.4744V25.6388H62.726V24.0935Z" fill="#006296"/>
<path d="M3.93411 21.7052H0.773193V20.1599H8.92134V21.7052H5.76042V29.9236H3.93411V21.7052Z" fill="#006296"/>
<path d="M11.9421 20.1602V24.0235H16.6483V20.1602H18.5449V29.9239H16.6483V25.6391H11.9421V29.9239H10.0455V20.1602H11.9421Z" fill="#006296"/>
<path d="M26.6932 25.6391H22.5488V28.4488H27.1849V29.9239H20.7225V20.1602H26.9741V21.6353H22.6191V24.0937H26.6932V25.6391Z" fill="#006296"/>
<path d="M45.4469 25.6391H41.3026V28.4488H45.9386V29.9239H39.4763V20.1602H45.7279V21.6353H41.3729V24.0937H45.5172V25.6391H45.4469Z" fill="#006296"/>
<path d="M50.1527 29.9237V25.8496L46.781 20.2302H48.9585L50.2229 22.759C50.5741 23.5316 50.8551 23.9531 51.1361 24.6555C51.417 24.0936 51.698 23.5316 52.0492 22.8292L53.3838 20.3005H55.5613L51.979 25.9199V30.0642H50.1527V29.9237Z" fill="#006296"/>
<path d="M81.8324 32.1006H75.651V17.4199H83.3075V19.1057H77.5476V30.4148H81.9026C83.0967 30.4148 84.2206 30.3445 84.9933 30.0636V31.6089C84.2206 31.9601 83.0967 32.1006 81.8324 32.1006ZM81.9026 25.2168V23.531H86.5386V17.1389H88.4352V33.1542H86.5386V25.2168H81.9026Z" fill="#191A1E"/>
<path d="M97.004 25.568V28.3075H95.1075V25.568H91.7358V23.9525H99.0411C100.305 23.9525 101.429 23.8822 102.342 23.6012V25.1466C101.5 25.4275 100.376 25.4978 99.1113 25.4978H97.004V25.568ZM92.368 20.0891C92.368 19.176 92.7895 18.4735 93.3514 18.0521C94.1943 17.4199 95.4587 17.1389 96.7933 17.1389C98.1279 17.1389 99.3923 17.4199 100.165 18.0521C100.797 18.5438 101.148 19.2462 101.148 20.0891C101.148 21.0023 100.797 21.7047 100.165 22.1964C99.322 22.8286 98.1279 23.1095 96.7933 23.1095C95.4587 23.1095 94.1943 22.8286 93.3514 22.1964C92.7192 21.6344 92.368 20.932 92.368 20.0891ZM105.574 33.365H93.3514V28.7992H95.248V31.6791H105.574V33.365ZM94.1943 20.0891C94.1943 20.5106 94.4051 20.8618 94.686 21.0725C95.1777 21.4237 95.8802 21.6344 96.7933 21.6344C97.6362 21.6344 98.4089 21.4237 98.8303 21.0725C99.1113 20.8618 99.322 20.5106 99.322 20.0891C99.322 19.6677 99.1113 19.3164 98.8303 19.1057C98.4089 18.7545 97.6362 18.614 96.7933 18.614C95.8802 18.614 95.1777 18.8247 94.686 19.1057C94.4051 19.3164 94.1943 19.6677 94.1943 20.0891ZM105.293 29.3611H103.396V28.0968H99.884V26.5514H103.396V17.1389H105.293V29.3611Z" fill="#191A1E"/>
<path d="M113.16 28.097C112.458 29.9233 110.561 31.3984 108.524 32.1008V30.3448C110.421 29.4316 112.177 27.816 112.177 23.3908V17.4201H114.073V23.3908C114.073 27.8863 115.829 29.4316 117.726 30.3448V32.1008C115.759 31.3984 113.863 29.9233 113.16 28.097ZM122.011 17.1392V33.1545H120.114V24.5849H116.391V22.8991H120.114V17.1392H122.011Z" fill="#191A1E"/>
<path d="M125.312 24.9357V23.3201H139.782V24.9357H133.46V26.3405H138.729V30.6253H128.333V31.8195H139.08V33.3648H126.436V29.08H136.832V27.8859H126.436V26.3405H131.634V24.9357H125.312ZM126.085 19.7377C126.085 19.0353 126.366 18.5436 126.858 18.1924C127.841 17.49 129.738 17.209 132.547 17.209C135.357 17.209 137.254 17.49 138.237 18.1924C138.729 18.6138 139.01 19.1055 139.01 19.7377C139.01 20.3699 138.729 20.9318 138.237 21.2831C137.254 21.9855 135.357 22.2665 132.547 22.2665C129.738 22.2665 127.841 21.9855 126.858 21.2831C126.366 20.8616 126.085 20.3699 126.085 19.7377ZM127.981 19.7377C127.981 19.9484 128.122 20.0889 128.333 20.2997C128.895 20.6509 130.299 20.7914 132.547 20.7914C134.795 20.7914 136.2 20.6509 136.762 20.2997C136.973 20.1592 137.113 19.9484 137.113 19.7377C137.113 19.527 136.973 19.3163 136.762 19.1758C136.2 18.8246 134.795 18.6841 132.547 18.6841C130.299 18.6841 128.895 18.8246 128.333 19.1758C128.122 19.3163 127.981 19.4567 127.981 19.7377Z" fill="#191A1E"/>
<path d="M142.242 21.7049C142.242 20.0893 142.734 18.8249 143.577 18.0522C144.279 17.4201 145.262 17.0688 146.386 17.0688C147.58 17.0688 148.564 17.4201 149.266 18.0522C150.109 18.8249 150.601 20.0893 150.601 21.7049C150.601 23.3204 150.109 24.5848 149.266 25.3575C148.564 25.9897 147.58 26.3409 146.386 26.3409C145.192 26.3409 144.279 25.9897 143.577 25.3575C142.734 24.5848 142.242 23.3204 142.242 21.7049ZM145.262 27.816V31.6091H155.448V33.2949H143.366V27.8862H145.262V27.816ZM144.138 21.7049C144.138 22.7585 144.419 23.6014 144.911 24.0931C145.333 24.5146 145.824 24.7253 146.457 24.7253C147.159 24.7253 147.651 24.5146 148.072 24.0931C148.564 23.6014 148.845 22.7585 148.845 21.7049C148.845 20.6512 148.564 19.8083 148.072 19.3166C147.651 18.8952 147.159 18.6844 146.457 18.6844C145.824 18.6844 145.262 18.8952 144.911 19.3166C144.349 19.8083 144.138 20.6512 144.138 21.7049ZM155.167 17.1391V21.4941H157.485V23.18H155.167V28.3077H153.27V17.0688H155.167V17.1391Z" fill="#191A1E"/>
<path d="M161.346 30.6255V23.3203H163.243V30.6255H166.825C168.23 30.6255 169.354 30.3445 169.986 29.7826V17.1389H171.883V23.6715H174.411V25.3573H171.883V33.1542H169.986V31.3279C169.354 31.9601 168.019 32.2411 166.404 32.2411H159.028V30.5553H161.346V30.6255ZM165.701 23.8822V19.176H159.52V17.4901H167.598V23.6012C167.598 25.0763 167.457 26.7622 167.176 27.886H165.28C165.561 26.7622 165.701 25.2168 165.701 23.8822Z" fill="#191A1E"/>
<path d="M76.0614 8.73215V8.30367H79.053V8.73215H77.7987V12.2925H77.3157V8.73215H76.0614ZM79.7985 12.2925V8.30367H80.2815V10.0799H82.4083V8.30367H82.8914V12.2925H82.4083V10.5084H80.2815V12.2925H79.7985ZM83.8584 12.2925V8.30367H86.2657V8.73215H84.3414V10.0799H86.141V10.5084H84.3414V11.864H86.2968V12.2925H83.8584ZM92.0444 10.2981C92.0444 10.7188 91.9684 11.0823 91.8165 11.3888C91.6646 11.6952 91.4562 11.9315 91.1913 12.0977C90.9264 12.2639 90.6239 12.347 90.2837 12.347C89.9435 12.347 89.641 12.2639 89.3761 12.0977C89.1112 11.9315 88.9028 11.6952 88.7509 11.3888C88.599 11.0823 88.523 10.7188 88.523 10.2981C88.523 9.87738 88.599 9.51382 88.7509 9.20738C88.9028 8.90095 89.1112 8.66464 89.3761 8.49843C89.641 8.33223 89.9435 8.24913 90.2837 8.24913C90.6239 8.24913 90.9264 8.33223 91.1913 8.49843C91.4562 8.66464 91.6646 8.90095 91.8165 9.20738C91.9684 9.51382 92.0444 9.87738 92.0444 10.2981ZM91.577 10.2981C91.577 9.95269 91.5192 9.66119 91.4036 9.42357C91.2894 9.18596 91.1342 9.00613 90.9381 8.88407C90.7434 8.76202 90.5252 8.70099 90.2837 8.70099C90.0422 8.70099 89.8234 8.76202 89.6273 8.88407C89.4326 9.00613 89.2774 9.18596 89.1619 9.42357C89.0476 9.66119 88.9905 9.95269 88.9905 10.2981C88.9905 10.6435 89.0476 10.935 89.1619 11.1726C89.2774 11.4102 89.4326 11.59 89.6273 11.7121C89.8234 11.8341 90.0422 11.8952 90.2837 11.8952C90.5252 11.8952 90.7434 11.8341 90.9381 11.7121C91.1342 11.59 91.2894 11.4102 91.4036 11.1726C91.5192 10.935 91.577 10.6435 91.577 10.2981ZM96.0196 8.30367V12.2925H95.5521L93.3785 9.16064H93.3396V12.2925H92.8566V8.30367H93.324L95.5054 11.4433H95.5443V8.30367H96.0196ZM96.9861 12.2925V8.30367H99.3934V8.73215H97.4691V10.0799H99.2688V10.5084H97.4691V11.864H99.4246V12.2925H96.9861ZM103.988 9.30087C103.965 9.10351 103.87 8.95029 103.704 8.84122C103.537 8.73215 103.334 8.67762 103.092 8.67762C102.915 8.67762 102.761 8.70618 102.628 8.76332C102.497 8.82045 102.395 8.899 102.321 8.99898C102.248 9.09896 102.212 9.21258 102.212 9.33982C102.212 9.4463 102.237 9.53784 102.288 9.61444C102.34 9.68975 102.406 9.75273 102.486 9.80337C102.567 9.85271 102.651 9.89361 102.739 9.92607C102.828 9.95723 102.909 9.98255 102.983 10.002L103.388 10.1111C103.492 10.1384 103.608 10.176 103.735 10.2241C103.863 10.2721 103.986 10.3377 104.103 10.4208C104.221 10.5026 104.318 10.6078 104.395 10.7363C104.472 10.8648 104.51 11.0226 104.51 11.2096C104.51 11.4251 104.453 11.6199 104.34 11.7939C104.229 11.9679 104.065 12.1062 103.85 12.2087C103.635 12.3113 103.375 12.3626 103.069 12.3626C102.783 12.3626 102.536 12.3165 102.327 12.2243C102.119 12.1321 101.955 12.0036 101.836 11.8387C101.718 11.6738 101.651 11.4823 101.635 11.2641H102.134C102.147 11.4147 102.197 11.5394 102.286 11.6381C102.375 11.7354 102.488 11.8082 102.625 11.8562C102.762 11.9029 102.91 11.9263 103.069 11.9263C103.253 11.9263 103.419 11.8965 103.565 11.8367C103.712 11.7757 103.828 11.6913 103.914 11.5835C104 11.4745 104.042 11.3472 104.042 11.2018C104.042 11.0693 104.005 10.9616 103.931 10.8785C103.857 10.7954 103.76 10.7279 103.639 10.6759C103.519 10.624 103.388 10.5785 103.248 10.5396L102.757 10.3994C102.445 10.3098 102.199 10.1819 102.017 10.0157C101.835 9.84946 101.744 9.63197 101.744 9.3632C101.744 9.13986 101.805 8.9451 101.925 8.7789C102.047 8.6114 102.211 8.48155 102.416 8.38937C102.623 8.29588 102.853 8.24913 103.108 8.24913C103.365 8.24913 103.593 8.29523 103.793 8.38742C103.993 8.47831 104.152 8.60296 104.268 8.76137C104.387 8.91978 104.449 9.09961 104.455 9.30087H103.988ZM105.304 12.2925V8.30367H107.711V8.73215H105.787V10.0799H107.587V10.5084H105.787V11.864H107.743V12.2925H105.304ZM111.948 10.2981C111.948 10.7188 111.872 11.0823 111.72 11.3888C111.568 11.6952 111.359 11.9315 111.094 12.0977C110.83 12.2639 110.527 12.347 110.187 12.347C109.847 12.347 109.544 12.2639 109.279 12.0977C109.014 11.9315 108.806 11.6952 108.654 11.3888C108.502 11.0823 108.426 10.7188 108.426 10.2981C108.426 9.87738 108.502 9.51382 108.654 9.20738C108.806 8.90095 109.014 8.66464 109.279 8.49843C109.544 8.33223 109.847 8.24913 110.187 8.24913C110.527 8.24913 110.83 8.33223 111.094 8.49843C111.359 8.66464 111.568 8.90095 111.72 9.20738C111.872 9.51382 111.948 9.87738 111.948 10.2981ZM111.48 10.2981C111.48 9.95269 111.422 9.66119 111.307 9.42357C111.193 9.18596 111.037 9.00613 110.841 8.88407C110.647 8.76202 110.428 8.70099 110.187 8.70099C109.945 8.70099 109.727 8.76202 109.531 8.88407C109.336 9.00613 109.181 9.18596 109.065 9.42357C108.951 9.66119 108.894 9.95269 108.894 10.2981C108.894 10.6435 108.951 10.935 109.065 11.1726C109.181 11.4102 109.336 11.59 109.531 11.7121C109.727 11.8341 109.945 11.8952 110.187 11.8952C110.428 11.8952 110.647 11.8341 110.841 11.7121C111.037 11.59 111.193 11.4102 111.307 11.1726C111.422 10.935 111.48 10.6435 111.48 10.2981ZM115.377 8.30367H115.86V10.9447C115.86 11.2174 115.796 11.4608 115.668 11.6751C115.54 11.888 115.361 12.0562 115.128 12.1795C114.896 12.3016 114.623 12.3626 114.31 12.3626C113.997 12.3626 113.724 12.3016 113.492 12.1795C113.26 12.0562 113.079 11.888 112.951 11.6751C112.823 11.4608 112.76 11.2174 112.76 10.9447V8.30367H113.243V10.9057C113.243 11.1005 113.286 11.2739 113.371 11.4258C113.457 11.5764 113.579 11.6952 113.737 11.7822C113.897 11.8679 114.088 11.9107 114.31 11.9107C114.532 11.9107 114.723 11.8679 114.883 11.7822C115.042 11.6952 115.164 11.5764 115.249 11.4258C115.335 11.2739 115.377 11.1005 115.377 10.9057V8.30367ZM116.825 12.2925V8.30367H117.308V11.864H119.162V12.2925H116.825ZM121.453 12.2925V8.30367H123.86V8.73215H121.936V10.0799H123.735V10.5084H121.936V11.864H123.891V12.2925H121.453ZM124.388 8.30367H124.941L126.047 10.1656H126.094L127.2 8.30367H127.753L126.312 10.6487V12.2925H125.829V10.6487L124.388 8.30367ZM128.378 12.2925V8.30367H130.785V8.73215H128.861V10.0799H130.661V10.5084H128.861V11.864H130.817V12.2925H128.378ZM136.408 9.55017H135.925C135.897 9.41124 135.847 9.28919 135.775 9.18401C135.705 9.07884 135.619 8.99054 135.518 8.91913C135.418 8.84642 135.307 8.79188 135.185 8.75553C135.063 8.71917 134.936 8.70099 134.803 8.70099C134.562 8.70099 134.343 8.76202 134.147 8.88407C133.952 9.00613 133.797 9.18596 133.682 9.42357C133.567 9.66119 133.51 9.95269 133.51 10.2981C133.51 10.6435 133.567 10.935 133.682 11.1726C133.797 11.4102 133.952 11.59 134.147 11.7121C134.343 11.8341 134.562 11.8952 134.803 11.8952C134.936 11.8952 135.063 11.877 135.185 11.8406C135.307 11.8043 135.418 11.7504 135.518 11.679C135.619 11.6063 135.705 11.5173 135.775 11.4121C135.847 11.3057 135.897 11.1836 135.925 11.046H136.408C136.372 11.2498 136.306 11.4323 136.21 11.5933C136.113 11.7543 135.994 11.8913 135.851 12.0042C135.708 12.1159 135.548 12.2009 135.37 12.2594C135.194 12.3178 135.005 12.347 134.803 12.347C134.463 12.347 134.161 12.2639 133.896 12.0977C133.631 11.9315 133.422 11.6952 133.271 11.3888C133.119 11.0823 133.043 10.7188 133.043 10.2981C133.043 9.87738 133.119 9.51382 133.271 9.20738C133.422 8.90095 133.631 8.66464 133.896 8.49843C134.161 8.33223 134.463 8.24913 134.803 8.24913C135.005 8.24913 135.194 8.27835 135.37 8.33678C135.548 8.39521 135.708 8.48091 135.851 8.59387C135.994 8.70554 136.113 8.84187 136.21 9.00288C136.306 9.16259 136.372 9.34502 136.408 9.55017ZM137.189 12.2925V8.30367H137.672V11.864H139.526V12.2925H137.189ZM140.757 8.30367V12.2925H140.274V8.30367H140.757ZM144.888 8.30367V12.2925H144.421L142.247 9.16064H142.208V12.2925H141.725V8.30367H142.193L144.374 11.4433H144.413V8.30367H144.888ZM146.338 8.30367V12.2925H145.855V8.30367H146.338ZM150.516 9.55017H150.033C150.005 9.41124 149.955 9.28919 149.883 9.18401C149.813 9.07884 149.727 8.99054 149.626 8.91913C149.526 8.84642 149.415 8.79188 149.293 8.75553C149.171 8.71917 149.044 8.70099 148.911 8.70099C148.67 8.70099 148.451 8.76202 148.255 8.88407C148.06 9.00613 147.905 9.18596 147.789 9.42357C147.675 9.66119 147.618 9.95269 147.618 10.2981C147.618 10.6435 147.675 10.935 147.789 11.1726C147.905 11.4102 148.06 11.59 148.255 11.7121C148.451 11.8341 148.67 11.8952 148.911 11.8952C149.044 11.8952 149.171 11.877 149.293 11.8406C149.415 11.8043 149.526 11.7504 149.626 11.679C149.727 11.6063 149.813 11.5173 149.883 11.4121C149.955 11.3057 150.005 11.1836 150.033 11.046H150.516C150.48 11.2498 150.414 11.4323 150.317 11.5933C150.221 11.7543 150.102 11.8913 149.959 12.0042C149.816 12.1159 149.656 12.2009 149.478 12.2594C149.301 12.3178 149.113 12.347 148.911 12.347C148.571 12.347 148.269 12.2639 148.004 12.0977C147.739 11.9315 147.53 11.6952 147.378 11.3888C147.227 11.0823 147.151 10.7188 147.151 10.2981C147.151 9.87738 147.227 9.51382 147.378 9.20738C147.53 8.90095 147.739 8.66464 148.004 8.49843C148.269 8.33223 148.571 8.24913 148.911 8.24913C149.113 8.24913 149.301 8.27835 149.478 8.33678C149.656 8.39521 149.816 8.48091 149.959 8.59387C150.102 8.70554 150.221 8.84187 150.317 9.00288C150.414 9.16259 150.48 9.34502 150.516 9.55017Z" fill="#006296"/>
</g>
<defs>
<radialGradient id="paint0_radial_393_4843" cx="0" cy="0" r="1" gradientUnits="userSpaceOnUse" gradientTransform="translate(46.7798 39.5589) scale(64.548)">
<stop offset="0.2688" stop-color="white" stop-opacity="0"/>
<stop offset="0.3148" stop-color="#DFF1FC" stop-opacity="0.1782"/>
<stop offset="0.3861" stop-color="#A9DCF7" stop-opacity="0.4546"/>
<stop offset="0.4478" stop-color="#77CBF3" stop-opacity="0.6936"/>
<stop offset="0.4968" stop-color="#4EC1F0" stop-opacity="0.8833"/>
<stop offset="0.5269" stop-color="#39BDEF"/>
<stop offset="0.564" stop-color="#26A9DE"/>
<stop offset="0.6383" stop-color="#0086BF"/>
<stop offset="0.7026" stop-color="#006DA9"/>
<stop offset="0.7536" stop-color="#005F9C"/>
<stop offset="0.7849" stop-color="#005998"/>
<stop offset="1" stop-color="#006296"/>
</radialGradient>
<radialGradient id="paint1_radial_393_4843" cx="0" cy="0" r="1" gradientUnits="userSpaceOnUse" gradientTransform="translate(44.9843 24.7554) scale(54.0305 54.0305)">
<stop offset="0.2688" stop-color="white" stop-opacity="0"/>
<stop offset="0.3148" stop-color="#DFF1FC" stop-opacity="0.1782"/>
<stop offset="0.3861" stop-color="#A9DCF7" stop-opacity="0.4546"/>
<stop offset="0.4478" stop-color="#77CBF3" stop-opacity="0.6936"/>
<stop offset="0.4968" stop-color="#4EC1F0" stop-opacity="0.8833"/>
<stop offset="0.5269" stop-color="#39BDEF"/>
<stop offset="0.564" stop-color="#26A9DE"/>
<stop offset="0.6383" stop-color="#0086BF"/>
<stop offset="0.7026" stop-color="#006DA9"/>
<stop offset="0.7536" stop-color="#005F9C"/>
<stop offset="0.7849" stop-color="#005998"/>
<stop offset="1" stop-color="#006296"/>
</radialGradient>
<clipPath id="clip0_393_4843">
<rect width="175.185" height="43.8314" fill="white"/>
</clipPath>
</defs>
</svg>
