<svg width="23" height="21" viewBox="0 0 23 21" fill="none" xmlns="http://www.w3.org/2000/svg">
<g clip-path="url(#clip0_494_4666)">
<path d="M22.2749 2.1097C21.9432 1.04601 21.0172 0.245117 19.8972 0.0699218C19.3403 -0.0233073 3.0653 -0.0233073 2.50279 0.0699218C1.35151 0.251374 0.39419 1.13361 0.0938548 2.28552C0.012514 2.604 0 3.38612 0 7.86675C0 11.4395 0.018771 13.1789 0.0688268 13.4042C0.168939 13.8797 0.525587 14.5242 0.894749 14.8933C1.25765 15.2562 1.93341 15.6129 2.43397 15.7067C2.62793 15.7443 4.04201 15.7693 5.78771 15.7693H8.80358L9.81721 18.1657C10.5117 19.7988 10.8809 20.5997 10.9873 20.6998C11.1625 20.8562 11.3377 20.8437 11.5254 20.656C11.5817 20.5997 12.0822 19.4797 12.6454 18.1657L13.659 15.7693H16.6686C19.9848 15.7693 20.1537 15.7505 20.8483 15.3814C21.524 15.0185 22.1622 14.1926 22.3312 13.448C22.375 13.2728 22.4 11.208 22.4 7.84798C22.4 2.68597 22.3937 2.50451 22.2749 2.11032V2.1097ZM19.7095 8.62322C19.7095 11.0447 19.6845 11.2261 19.3153 11.7142C19.2027 11.8643 18.9587 12.0646 18.771 12.1709C18.4644 12.3336 18.3517 12.3586 17.7886 12.3774L17.1441 12.4024V11.1385H17.432C17.9325 11.1385 18.2203 10.8695 18.3079 10.3251L18.3517 10.0498L18.1765 10.1875C17.9575 10.3627 17.5821 10.4628 17.1316 10.469C16.8501 10.469 16.6874 10.4252 16.3683 10.2688C15.655 9.91841 15.3922 9.43663 15.3922 8.47305C15.3922 7.32177 15.9178 6.60847 16.9189 6.40199C17.4507 6.29562 17.9137 6.40199 18.2579 6.71484L18.3955 6.83998V6.44579H19.7095V8.62322ZM10.3365 8.32977C10.3553 7.95435 10.4054 7.77915 10.543 7.51636C10.981 6.71546 11.9821 6.26496 12.9082 6.44641C14.3848 6.73423 15.1607 8.17334 14.4787 9.36217C14.2722 9.73133 13.7528 10.1756 13.3712 10.3132C12.7455 10.5447 11.9946 10.5135 11.4503 10.2319C11.0749 10.0379 10.6619 9.59368 10.4804 9.18697C10.3303 8.8491 10.3115 8.74898 10.3365 8.32977ZM7.44581 5.2507V4.55618L7.71486 4.59998C8.4657 4.72512 8.92246 5.03797 9.21028 5.61987L9.41676 6.03908L9.43553 8.17897L9.4543 10.3251H8.07151V6.3707L7.85877 6.15797C7.73989 6.03908 7.60223 5.94523 7.54592 5.94523C7.45832 5.94523 7.44581 5.84512 7.44581 5.2507ZM6.04425 10.2507C5.44983 10.5322 4.81162 10.526 4.37363 10.2319C4.08581 10.0442 4.06704 10.0442 4.06704 10.2006C4.06704 10.3257 4.03575 10.3326 3.39754 10.3132L2.72179 10.2945L2.70302 7.52887L2.6905 4.75703H4.06704V6.8406L4.21095 6.71546C4.6552 6.30876 5.4686 6.25245 6.10682 6.58407C6.41341 6.74675 6.79508 7.20977 6.92022 7.57893C7.08916 8.06697 7.08291 8.99926 6.90771 9.39345C6.74503 9.73759 6.40089 10.088 6.04425 10.2507Z" fill="white"/>
<path d="M4.5437 7.79074C4.04314 8.02851 3.99308 8.77934 4.4561 9.09845C4.76895 9.31744 5.36336 9.16728 5.53856 8.82314C5.88895 8.14739 5.23197 7.46538 4.5437 7.79074Z" fill="white"/>
<path d="M12.0952 9.13839C12.6458 9.47627 13.3278 9.06331 13.3278 8.39381C13.3278 8.16231 13.2903 8.08722 13.0838 7.88074C12.8773 7.668 12.8022 7.63672 12.5707 7.63672C12.2203 7.63672 12.0264 7.73683 11.8449 8.00588C11.8361 8.01839 11.828 8.03091 11.8205 8.04405C11.594 8.42197 11.7173 8.91189 12.0952 9.13839Z" fill="white"/>
<path d="M16.9582 8.0301C16.7142 8.43055 16.8769 8.99367 17.2898 9.16887C17.5338 9.27524 17.6465 9.2815 17.878 9.1939C18.3472 9.0187 18.5412 8.56194 18.3472 8.1177C18.0845 7.52328 17.2961 7.47323 16.9582 8.0301Z" fill="white"/>
</g>
<defs>
<clipPath id="clip0_494_4666">
<rect width="22.4" height="20.8076" fill="white"/>
</clipPath>
</defs>
</svg>
