<svg width="24" height="24" viewBox="0 0 24 24" fill="none" xmlns="http://www.w3.org/2000/svg">
<g clip-path="url(#clip0_110_9924)">
<path d="M11.5 23.4119C12.0767 23.4119 12.6534 23.207 13.1186 22.7973C15.8903 20.356 21.25 14.9344 21.25 9.5127C21.25 4.12789 16.8848 -0.237305 11.5 -0.237305C6.1152 -0.237305 1.75 4.12789 1.75 9.5127C1.75 14.9344 7.1097 20.356 9.88144 22.7974C10.3466 23.2071 10.9233 23.4119 11.5 23.4119ZM15.1562 9.5127C15.1562 11.532 13.5193 13.1689 11.5 13.1689C9.48071 13.1689 7.84375 11.532 7.84375 9.5127C7.84375 7.4934 9.48071 5.85645 11.5 5.85645C13.5193 5.85645 15.1562 7.4934 15.1562 9.5127Z" fill="#015ED9"/>
</g>
<defs>
<clipPath id="clip0_110_9924">
<rect width="24" height="24" fill="white"/>
</clipPath>
</defs>
</svg>
