<svg width="24" height="24" viewBox="0 0 24 24" fill="none" xmlns="http://www.w3.org/2000/svg">
<path d="M11.9705 20V19H18.3755C18.5288 19 18.6698 18.936 18.7985 18.808C18.9272 18.68 18.9912 18.5387 18.9905 18.384V5.616C18.9905 5.462 18.9265 5.32067 18.7985 5.192C18.6705 5.06333 18.5292 4.99933 18.3745 5H11.9715V4H18.3755C18.8355 4 19.2195 4.15433 19.5275 4.463C19.8355 4.77167 19.9898 5.156 19.9905 5.616V18.385C19.9905 18.845 19.8362 19.2293 19.5275 19.538C19.2188 19.8467 18.8348 20.0007 18.3755 20H11.9705ZM11.2605 15.539L10.5575 14.819L12.8775 12.5H4.00951V11.5H12.8775L10.5575 9.18L11.2595 8.462L14.7985 12L11.2605 15.539Z" fill="#111111"/>
</svg>
