<svg width="24" height="24" viewBox="0 0 24 24" fill="none" xmlns="http://www.w3.org/2000/svg">
<path d="M11.5 21.3379C16.8834 21.3379 21.25 16.9713 21.25 11.5879C21.25 6.20449 16.8834 1.83789 11.5 1.83789C6.1166 1.83789 1.75 6.20449 1.75 11.5879C1.75 16.9713 6.1166 21.3379 11.5 21.3379ZM10.8036 6.01647C10.8036 5.63342 11.117 5.32002 11.5 5.32002C11.883 5.32002 12.1964 5.63342 12.1964 6.01647V11.2536L15.4174 13.8304C15.7169 14.0707 15.7656 14.5094 15.5254 14.8089C15.3895 14.9795 15.1876 15.07 14.9821 15.07C14.8289 15.07 14.6757 15.0212 14.5469 14.9168L11.0648 12.1311C10.9011 11.9988 10.8036 11.8003 10.8036 11.5879V6.01647H10.8036Z" fill="#015ED9"/>
</svg>
