<svg width="263" height="66" viewBox="0 0 263 66" fill="none" xmlns="http://www.w3.org/2000/svg">
<g clip-path="url(#clip0_494_4696)">
<g clip-path="url(#clip1_494_4696)">
<path fill-rule="evenodd" clip-rule="evenodd" d="M67.2468 10.0383C60.0845 4.13996 50.2889 2.13872 41.0201 3.71864C31.9618 4.87726 23.5356 10.1437 19.4277 18.0433C15.4253 25.7323 15.7413 35.1065 19.5331 42.1635C22.5876 47.9565 27.854 52.275 33.4364 54.3816C28.0647 48.5885 25.3261 40.8995 25.2208 33.6319C25.1155 26.0482 28.17 17.8326 34.4897 12.4609C37.7549 9.61703 42.0733 7.51046 46.7078 6.66784C51.5529 5.82521 56.8193 6.35185 61.6644 8.24776C66.9308 10.3543 71.5653 14.4621 74.7251 19.4126C72.8292 16.0421 70.196 12.5662 67.2468 10.0383Z" fill="url(#paint0_radial_494_4696)"/>
<path fill-rule="evenodd" clip-rule="evenodd" d="M78.4105 33.32H78.5158C78.7265 25.5257 75.8826 17.6261 70.7215 11.6224C65.5605 5.61868 58.0821 1.72153 50.2879 0.878906C42.4936 0.0362794 34.4886 2.14284 28.3796 6.67196C22.2705 11.0957 18.0574 17.9421 16.5828 25.1044C15.2135 32.1614 16.5828 39.745 20.2693 45.6434C23.8504 51.4365 29.6435 55.8603 36.0685 57.6509C42.2829 59.4414 49.1292 58.9148 54.817 56.1763C60.3994 53.543 64.8232 48.9086 67.2457 43.5369C71.3535 41.009 75.672 37.5331 77.5679 32.688C78.1999 45.5381 69.7736 58.7041 57.5555 63.4439C45.4428 68.1837 30.2755 64.0759 22.2705 53.9644C15.6348 46.2754 13.107 35.1106 15.7402 25.2097C18.3734 15.4142 26.0623 6.88262 35.5419 3.40678C45.1268 -0.0690489 56.5022 1.40555 64.8232 7.1986C73.1441 13.097 78.4105 23.2085 78.4105 33.32Z" fill="url(#paint1_radial_494_4696)"/>
<path d="M48.0672 23.9446L43.2221 26.2619L42.3795 22.4701L48.8045 19.4155H52.2804V44.905H48.1726V23.9446H48.0672Z" fill="white"/>
<path d="M94.2014 30.3721H84.8271V32.6893H94.2014V30.3721Z" fill="white"/>
<path d="M94.2014 42.6968H84.8271V45.014H94.2014V42.6968Z" fill="white"/>
<path d="M94.2014 36.2705H84.8271V38.5877H94.2014V36.2705Z" fill="white"/>
<path d="M6.04312 32.6893H1.30334V30.3721H13.5214V32.6893H8.78165V45.0127H6.04312V32.6893Z" fill="white"/>
<path d="M18.05 30.3721V36.1651H25.107V30.3721H27.9509V45.0127H25.107V38.5877H18.05V45.0127H15.2062V30.3721H18.05Z" fill="white"/>
<path d="M40.1687 38.5877H33.9544V42.8008H40.906V45.0127H31.2158V30.3721H40.59V32.584H34.0597V36.2705H40.1687V38.5877Z" fill="white"/>
<path d="M68.2907 38.5877H62.0763V42.8008H69.028V45.0127H59.3378V30.3721H68.712V32.584H62.1816V36.2705H68.396V38.5877H68.2907Z" fill="white"/>
<path d="M75.3467 45.0119V38.9028L70.2909 30.4766H73.5561L75.452 34.2684C75.9786 35.427 76.3999 36.059 76.8213 37.1122C77.2426 36.2696 77.6639 35.427 78.1905 34.3737L80.1918 30.5819H83.4569L78.0852 39.0082V45.2225H75.3467V45.0119Z" fill="white"/>
<path d="M122.855 48.2684H113.586V26.2548H125.067V28.7827H116.43V45.7405H122.96C124.751 45.7405 126.436 45.6352 127.595 45.2139V47.5311C126.436 48.0578 124.751 48.2684 122.855 48.2684ZM122.96 37.9463V35.4184H129.912V25.8335H132.756V49.8484H129.912V37.9463H122.96Z" fill="white"/>
<path d="M145.609 38.4729V42.5807H142.766V38.4729H137.71V36.0503H148.664C150.56 36.0503 152.245 35.945 153.614 35.5237V37.8409C152.35 38.2622 150.665 38.3676 148.769 38.3676H145.609V38.4729ZM138.658 30.2573C138.658 28.888 139.29 27.8347 140.132 27.2028C141.396 26.2548 143.292 25.8335 145.293 25.8335C147.295 25.8335 149.191 26.2548 150.349 27.2028C151.297 27.9401 151.824 28.9933 151.824 30.2573C151.824 31.6266 151.297 32.6798 150.349 33.4171C149.085 34.3651 147.295 34.7864 145.293 34.7864C143.292 34.7864 141.396 34.3651 140.132 33.4171C139.184 32.5745 138.658 31.5212 138.658 30.2573ZM158.46 50.1643H140.132V43.318H142.976V47.6365H158.46V50.1643ZM141.396 30.2573C141.396 30.8893 141.712 31.4159 142.134 31.7319C142.871 32.2585 143.924 32.5745 145.293 32.5745C146.557 32.5745 147.716 32.2585 148.348 31.7319C148.769 31.4159 149.085 30.8893 149.085 30.2573C149.085 29.6253 148.769 29.0987 148.348 28.7827C147.716 28.256 146.557 28.0454 145.293 28.0454C143.924 28.0454 142.871 28.3614 142.134 28.7827C141.712 29.0987 141.396 29.6253 141.396 30.2573ZM158.038 44.1606H155.194V42.2647H149.928V39.9475H155.194V25.8335H158.038V44.1606Z" fill="white"/>
<path d="M169.829 42.2647C168.776 45.0032 165.932 47.2151 162.877 48.2684V45.6352C165.721 44.266 168.354 41.8434 168.354 35.2077V26.2548H171.198V35.2077C171.198 41.9487 173.831 44.266 176.675 45.6352V48.2684C173.726 47.2151 170.882 45.0032 169.829 42.2647ZM183.1 25.8335V49.8484H180.256V36.9983H174.674V34.4704H180.256V25.8335H183.1Z" fill="white"/>
<path d="M188.053 37.5241V35.1016H209.75V37.5241H200.271V39.6307H208.17V46.0557H192.582V47.8463H208.697V50.1635H189.738V43.7385H205.326V41.9479H189.738V39.6307H197.532V37.5241H188.053ZM189.211 29.7298C189.211 28.6765 189.633 27.9392 190.37 27.4126C191.844 26.3593 194.688 25.938 198.901 25.938C203.115 25.938 205.958 26.3593 207.433 27.4126C208.17 28.0446 208.592 28.7819 208.592 29.7298C208.592 30.6778 208.17 31.5204 207.433 32.047C205.958 33.1003 203.115 33.5216 198.901 33.5216C194.688 33.5216 191.844 33.1003 190.37 32.047C189.633 31.4151 189.211 30.6778 189.211 29.7298ZM192.055 29.7298C192.055 30.0458 192.266 30.2564 192.582 30.5724C193.424 31.0991 195.531 31.3097 198.901 31.3097C202.272 31.3097 204.379 31.0991 205.221 30.5724C205.537 30.3618 205.748 30.0458 205.748 29.7298C205.748 29.4138 205.537 29.0978 205.221 28.8872C204.379 28.3605 202.272 28.1499 198.901 28.1499C195.531 28.1499 193.424 28.3605 192.582 28.8872C192.266 29.0978 192.055 29.3085 192.055 29.7298Z" fill="white"/>
<path d="M213.438 32.686C213.438 30.2635 214.175 28.3676 215.439 27.209C216.493 26.261 217.967 25.7344 219.652 25.7344C221.443 25.7344 222.918 26.261 223.971 27.209C225.235 28.3676 225.972 30.2635 225.972 32.686C225.972 35.1086 225.235 37.0045 223.971 38.1631C222.918 39.1111 221.443 39.6377 219.652 39.6377C217.862 39.6377 216.493 39.1111 215.439 38.1631C214.175 37.0045 213.438 35.1086 213.438 32.686ZM217.967 41.8496V47.5373H233.24V50.0652H215.123V41.9549H217.967V41.8496ZM216.282 32.686C216.282 34.266 216.703 35.5299 217.441 36.2672C218.073 36.8992 218.81 37.2152 219.758 37.2152C220.811 37.2152 221.548 36.8992 222.18 36.2672C222.918 35.5299 223.339 34.266 223.339 32.686C223.339 31.1061 222.918 29.8422 222.18 29.1049C221.548 28.4729 220.811 28.1569 219.758 28.1569C218.81 28.1569 217.967 28.4729 217.441 29.1049C216.598 29.8422 216.282 31.1061 216.282 32.686ZM232.819 25.8397V32.3701H236.294V34.8979H232.819V42.5869H229.975V25.7344H232.819V25.8397Z" fill="white"/>
<path d="M242.09 46.0565V35.1024H244.934V46.0565H250.305C252.412 46.0565 254.097 45.6352 255.045 44.7926V25.8335H257.889V35.629H261.681V38.1569H257.889V49.8484H255.045V47.1098C254.097 48.0578 252.096 48.4791 249.673 48.4791H238.614V45.9512H242.09V46.0565ZM248.62 35.945V28.888H239.351V26.3601H251.464V35.5237C251.464 37.7356 251.253 40.2635 250.832 41.9487H247.988C248.41 40.2635 248.62 37.9463 248.62 35.945Z" fill="white"/>
<path d="M114.199 13.7326V13.0901H118.685V13.7326H116.804V19.0713H116.08V13.7326H114.199ZM119.803 19.0713V13.0901H120.527V15.7536H123.716V13.0901H124.441V19.0713H123.716V16.3961H120.527V19.0713H119.803ZM125.891 19.0713V13.0901H129.5V13.7326H126.615V15.7536H129.314V16.3961H126.615V18.4288H129.547V19.0713H125.891ZM138.166 16.0807C138.166 16.7115 138.052 17.2567 137.824 17.7162C137.596 18.1757 137.284 18.53 136.886 18.7792C136.489 19.0285 136.036 19.1531 135.525 19.1531C135.015 19.1531 134.562 19.0285 134.164 18.7792C133.767 18.53 133.455 18.1757 133.227 17.7162C132.999 17.2567 132.885 16.7115 132.885 16.0807C132.885 15.4499 132.999 14.9047 133.227 14.4452C133.455 13.9857 133.767 13.6314 134.164 13.3821C134.562 13.1329 135.015 13.0083 135.525 13.0083C136.036 13.0083 136.489 13.1329 136.886 13.3821C137.284 13.6314 137.596 13.9857 137.824 14.4452C138.052 14.9047 138.166 15.4499 138.166 16.0807ZM137.465 16.0807C137.465 15.5628 137.378 15.1257 137.205 14.7694C137.033 14.4131 136.801 14.1434 136.507 13.9604C136.215 13.7774 135.888 13.6859 135.525 13.6859C135.163 13.6859 134.835 13.7774 134.541 13.9604C134.249 14.1434 134.017 14.4131 133.843 14.7694C133.672 15.1257 133.586 15.5628 133.586 16.0807C133.586 16.5986 133.672 17.0357 133.843 17.392C134.017 17.7483 134.249 18.018 134.541 18.201C134.835 18.384 135.163 18.4755 135.525 18.4755C135.888 18.4755 136.215 18.384 136.507 18.201C136.801 18.018 137.033 17.7483 137.205 17.392C137.378 17.0357 137.465 16.5986 137.465 16.0807ZM144.126 13.0901V19.0713H143.425L140.166 14.3751H140.108V19.0713H139.383V13.0901H140.084L143.355 17.7979H143.414V13.0901H144.126ZM145.576 19.0713V13.0901H149.185V13.7326H146.3V15.7536H148.998V16.3961H146.3V18.4288H149.232V19.0713H145.576ZM156.075 14.5854C156.04 14.2895 155.898 14.0597 155.648 13.8962C155.399 13.7326 155.094 13.6508 154.731 13.6508C154.467 13.6508 154.235 13.6937 154.036 13.7793C153.84 13.865 153.686 13.9828 153.575 14.1327C153.466 14.2826 153.411 14.453 153.411 14.6438C153.411 14.8035 153.449 14.9407 153.525 15.0556C153.603 15.1685 153.702 15.263 153.823 15.3389C153.944 15.4129 154.07 15.4742 154.203 15.5229C154.335 15.5696 154.457 15.6076 154.568 15.6368L155.175 15.8003C155.331 15.8412 155.504 15.8977 155.695 15.9697C155.888 16.0418 156.072 16.1401 156.247 16.2647C156.424 16.3873 156.57 16.5451 156.685 16.7378C156.8 16.9306 156.858 17.1671 156.858 17.4475C156.858 17.7707 156.773 18.0627 156.603 18.3236C156.436 18.5845 156.191 18.7919 155.867 18.9457C155.546 19.0995 155.156 19.1764 154.696 19.1764C154.268 19.1764 153.897 19.1073 153.584 18.9691C153.272 18.8308 153.027 18.6381 152.848 18.3908C152.67 18.1435 152.57 17.8564 152.547 17.5293H153.295C153.314 17.7551 153.39 17.942 153.522 18.09C153.657 18.236 153.826 18.3451 154.03 18.4171C154.237 18.4872 154.459 18.5222 154.696 18.5222C154.973 18.5222 155.221 18.4775 155.441 18.3879C155.661 18.2964 155.835 18.1698 155.964 18.0082C156.092 17.8447 156.157 17.6539 156.157 17.4358C156.157 17.2372 156.101 17.0756 155.99 16.951C155.879 16.8264 155.733 16.7252 155.552 16.6473C155.371 16.5694 155.175 16.5012 154.965 16.4428L154.229 16.2326C153.762 16.0982 153.392 15.9064 153.119 15.6572C152.847 15.408 152.71 15.0819 152.71 14.6789C152.71 14.344 152.801 14.0519 152.982 13.8027C153.165 13.5515 153.41 13.3568 153.718 13.2186C154.028 13.0784 154.373 13.0083 154.755 13.0083C155.14 13.0083 155.483 13.0774 155.783 13.2157C156.083 13.352 156.32 13.5389 156.495 13.7764C156.673 14.014 156.766 14.2836 156.776 14.5854H156.075ZM158.048 19.0713V13.0901H161.658V13.7326H158.773V15.7536H161.471V16.3961H158.773V18.4288H161.705V19.0713H158.048ZM168.01 16.0807C168.01 16.7115 167.896 17.2567 167.668 17.7162C167.441 18.1757 167.128 18.53 166.731 18.7792C166.334 19.0285 165.88 19.1531 165.37 19.1531C164.86 19.1531 164.406 19.0285 164.009 18.7792C163.612 18.53 163.299 18.1757 163.072 17.7162C162.844 17.2567 162.73 16.7115 162.73 16.0807C162.73 15.4499 162.844 14.9047 163.072 14.4452C163.299 13.9857 163.612 13.6314 164.009 13.3821C164.406 13.1329 164.86 13.0083 165.37 13.0083C165.88 13.0083 166.334 13.1329 166.731 13.3821C167.128 13.6314 167.441 13.9857 167.668 14.4452C167.896 14.9047 168.01 15.4499 168.01 16.0807ZM167.309 16.0807C167.309 15.5628 167.223 15.1257 167.049 14.7694C166.878 14.4131 166.645 14.1434 166.351 13.9604C166.059 13.7774 165.732 13.6859 165.37 13.6859C165.008 13.6859 164.68 13.7774 164.386 13.9604C164.094 14.1434 163.861 14.4131 163.688 14.7694C163.517 15.1257 163.431 15.5628 163.431 16.0807C163.431 16.5986 163.517 17.0357 163.688 17.392C163.861 17.7483 164.094 18.018 164.386 18.201C164.68 18.384 165.008 18.4755 165.37 18.4755C165.732 18.4755 166.059 18.384 166.351 18.201C166.645 18.018 166.878 17.7483 167.049 17.392C167.223 17.0357 167.309 16.5986 167.309 16.0807ZM173.153 13.0901H173.877V17.0503C173.877 17.4592 173.781 17.8242 173.588 18.1455C173.398 18.4648 173.128 18.7169 172.779 18.9019C172.431 19.0849 172.022 19.1764 171.553 19.1764C171.084 19.1764 170.675 19.0849 170.326 18.9019C169.978 18.7169 169.707 18.4648 169.514 18.1455C169.323 17.8242 169.228 17.4592 169.228 17.0503V13.0901H169.952V16.9919C169.952 17.2839 170.017 17.5439 170.145 17.7717C170.274 17.9975 170.457 18.1757 170.694 18.3061C170.934 18.4346 171.22 18.4989 171.553 18.4989C171.886 18.4989 172.172 18.4346 172.411 18.3061C172.651 18.1757 172.834 17.9975 172.96 17.7717C173.089 17.5439 173.153 17.2839 173.153 16.9919V13.0901ZM175.324 19.0713V13.0901H176.048V18.4288H178.828V19.0713H175.324ZM182.263 19.0713V13.0901H185.873V13.7326H182.987V15.7536H185.686V16.3961H182.987V18.4288H185.919V19.0713H182.263ZM186.664 13.0901H187.494L189.152 15.8821H189.223L190.881 13.0901H191.711L189.55 16.6064V19.0713H188.825V16.6064L186.664 13.0901ZM192.648 19.0713V13.0901H196.257V13.7326H193.372V15.7536H196.07V16.3961H193.372V18.4288H196.304V19.0713H192.648ZM204.689 14.9592H203.965C203.922 14.7509 203.847 14.5679 203.74 14.4102C203.634 14.2525 203.506 14.1201 203.354 14.013C203.204 13.9039 203.038 13.8222 202.855 13.7677C202.672 13.7131 202.481 13.6859 202.282 13.6859C201.92 13.6859 201.592 13.7774 201.298 13.9604C201.006 14.1434 200.773 14.4131 200.6 14.7694C200.429 15.1257 200.343 15.5628 200.343 16.0807C200.343 16.5986 200.429 17.0357 200.6 17.392C200.773 17.7483 201.006 18.018 201.298 18.201C201.592 18.384 201.92 18.4755 202.282 18.4755C202.481 18.4755 202.672 18.4482 202.855 18.3937C203.038 18.3392 203.204 18.2584 203.354 18.1513C203.506 18.0423 203.634 17.9089 203.74 17.7512C203.847 17.5916 203.922 17.4085 203.965 17.2022H204.689C204.634 17.5078 204.535 17.7814 204.391 18.0228C204.247 18.2643 204.068 18.4697 203.854 18.6391C203.639 18.8065 203.399 18.934 203.132 19.0216C202.867 19.1093 202.584 19.1531 202.282 19.1531C201.772 19.1531 201.319 19.0285 200.921 18.7792C200.524 18.53 200.212 18.1757 199.984 17.7162C199.756 17.2567 199.642 16.7115 199.642 16.0807C199.642 15.4499 199.756 14.9047 199.984 14.4452C200.212 13.9857 200.524 13.6314 200.921 13.3821C201.319 13.1329 201.772 13.0083 202.282 13.0083C202.584 13.0083 202.867 13.0521 203.132 13.1397C203.399 13.2274 203.639 13.3559 203.854 13.5253C204.068 13.6927 204.247 13.8971 204.391 14.1386C204.535 14.378 204.634 14.6516 204.689 14.9592ZM205.859 19.0713V13.0901H206.583V18.4288H209.364V19.0713H205.859ZM211.21 13.0901V19.0713H210.485V13.0901H211.21ZM217.405 13.0901V19.0713H216.704L213.444 14.3751H213.386V19.0713H212.662V13.0901H213.363L216.634 17.7979H216.692V13.0901H217.405ZM219.578 13.0901V19.0713H218.854V13.0901H219.578ZM225.843 14.9592H225.119C225.076 14.7509 225.001 14.5679 224.894 14.4102C224.789 14.2525 224.661 14.1201 224.509 14.013C224.359 13.9039 224.192 13.8222 224.009 13.7677C223.826 13.7131 223.636 13.6859 223.437 13.6859C223.075 13.6859 222.747 13.7774 222.453 13.9604C222.161 14.1434 221.928 14.4131 221.755 14.7694C221.583 15.1257 221.498 15.5628 221.498 16.0807C221.498 16.5986 221.583 17.0357 221.755 17.392C221.928 17.7483 222.161 18.018 222.453 18.201C222.747 18.384 223.075 18.4755 223.437 18.4755C223.636 18.4755 223.826 18.4482 224.009 18.3937C224.192 18.3392 224.359 18.2584 224.509 18.1513C224.661 18.0423 224.789 17.9089 224.894 17.7512C225.001 17.5916 225.076 17.4085 225.119 17.2022H225.843C225.789 17.5078 225.69 17.7814 225.546 18.0228C225.401 18.2643 225.222 18.4697 225.008 18.6391C224.794 18.8065 224.554 18.934 224.287 19.0216C224.022 19.1093 223.739 19.1531 223.437 19.1531C222.927 19.1531 222.473 19.0285 222.076 18.7792C221.679 18.53 221.366 18.1757 221.139 17.7162C220.911 17.2567 220.797 16.7115 220.797 16.0807C220.797 15.4499 220.911 14.9047 221.139 14.4452C221.366 13.9857 221.679 13.6314 222.076 13.3821C222.473 13.1329 222.927 13.0083 223.437 13.0083C223.739 13.0083 224.022 13.0521 224.287 13.1397C224.554 13.2274 224.794 13.3559 225.008 13.5253C225.222 13.6927 225.401 13.8971 225.546 14.1386C225.69 14.378 225.789 14.6516 225.843 14.9592Z" fill="white"/>
</g>
</g>
<defs>
<radialGradient id="paint0_radial_494_4696" cx="0" cy="0" r="1" gradientUnits="userSpaceOnUse" gradientTransform="translate(70.2993 59.4563) scale(96.7892 96.7892)">
<stop offset="0.2688" stop-color="white" stop-opacity="0"/>
<stop offset="0.3148" stop-color="white" stop-opacity="0.1782"/>
<stop offset="0.3861" stop-color="white" stop-opacity="0.4546"/>
<stop offset="0.4478" stop-color="white" stop-opacity="0.6936"/>
<stop offset="0.4968" stop-color="white" stop-opacity="0.8833"/>
<stop offset="0.5269" stop-color="white"/>
<stop offset="0.564" stop-color="white"/>
<stop offset="0.6383" stop-color="white"/>
<stop offset="0.7026" stop-color="white"/>
<stop offset="0.7536" stop-color="white"/>
<stop offset="0.7849" stop-color="white"/>
<stop offset="1" stop-color="white"/>
</radialGradient>
<radialGradient id="paint1_radial_494_4696" cx="0" cy="0" r="1" gradientUnits="userSpaceOnUse" gradientTransform="translate(67.6052 37.2623) scale(81.0183 81.0183)">
<stop offset="0.2688" stop-color="white" stop-opacity="0"/>
<stop offset="0.3148" stop-color="white" stop-opacity="0.1782"/>
<stop offset="0.3861" stop-color="white" stop-opacity="0.4546"/>
<stop offset="0.4478" stop-color="white" stop-opacity="0.6936"/>
<stop offset="0.4968" stop-color="white" stop-opacity="0.8833"/>
<stop offset="0.5269" stop-color="white"/>
<stop offset="0.564" stop-color="white"/>
<stop offset="0.6383" stop-color="white"/>
<stop offset="0.7026" stop-color="white"/>
<stop offset="0.7536" stop-color="white"/>
<stop offset="0.7849" stop-color="white"/>
<stop offset="1" stop-color="white"/>
</radialGradient>
<clipPath id="clip0_494_4696">
<rect width="262.689" height="65.9776" fill="white" transform="translate(0.000244141)"/>
</clipPath>
<clipPath id="clip1_494_4696">
<rect width="262.689" height="65.7249" fill="white" transform="translate(0.144775 0.139648)"/>
</clipPath>
</defs>
</svg>
