<svg preserveAspectRatio="none" width="100%" height="100%" overflow="visible" style="display: block;" viewBox="0 0 22.4 15.6805" fill="none" xmlns="http://www.w3.org/2000/svg">
<g id="_&#229;&#175;&#131;&#226;&#145;&#184;&#226;&#148;&#129;_&#239;&#167;&#143;&#226;&#145;&#164;&#235;&#177;&#182;" clip-path="url(#clip0_0_156)">
<path id="Vector" d="M21.9322 2.4488C21.6743 1.48437 20.9156 0.727095 19.9512 0.46781C18.2048 0 11.2 0 11.2 0C11.2 0 4.1952 0 2.4488 0.46781C1.48437 0.725723 0.727095 1.48437 0.46781 2.4488C0 4.1952 0 7.84027 0 7.84027C0 7.84027 0 11.4854 0.46781 13.2317C0.725723 14.1962 1.48437 14.9535 2.4488 15.2127C4.1952 15.6805 11.2 15.6805 11.2 15.6805C11.2 15.6805 18.2048 15.6805 19.9512 15.2127C20.9156 14.9548 21.6729 14.1962 21.9322 13.2317C22.4 11.4854 22.4 7.84027 22.4 7.84027C22.4 7.84027 22.3986 4.1952 21.9322 2.4488ZM8.95835 11.2V4.48055L14.7779 7.84027L8.95835 11.2Z" fill="var(--fill-0, white)"/>
</g>
<defs>
<clipPath id="clip0_0_156">
<rect width="22.4" height="15.6805" fill="white"/>
</clipPath>
</defs>
</svg>
